<svg xmlns="http://www.w3.org/2000/svg" id="svg24" version="1.1" viewBox="0 0 512 512"><defs id="defs4"><style id="style2"></style></defs><circle r="133.25" cy="256" cx="256" id="path922" opacity="1" fill="#fff" fill-opacity="1" stroke="none" stroke-width="52.902" stroke-miterlimit="4" stroke-dasharray="none" stroke-opacity="1"/><g data-name="Layer 2" id="Layer_2"><g id="layer1" display="inline"><g transform="translate(-2.288 1.653)" id="g918"><path id="rect18" stroke-width="1.207" fill="#fdb74d" d="M212.691 259.884h129.272v50.258H212.691z"/><path id="polygon20" d="M258 176l-.046 74.856L220 296V176z" transform="matrix(1.3303 0 0 1.1208 -80.266 -21.437)" fill="#ff9259"/><path id="path878" d="M401.594 299.454a150.053 150.053 0 01-141.922 105.123" opacity="1" fill="none" stroke="#17c6cc" stroke-width="50.818" stroke-miterlimit="4" stroke-dasharray="none" stroke-opacity="1"/><path d="M259.672 404.577a150.053 150.053 0 01-143.835-102.491" id="path888" opacity="1" fill="none" stroke="#52c772" stroke-width="50.818" stroke-miterlimit="4" stroke-dasharray="none" stroke-opacity="1"/><path id="path890" d="M115.837 302.086a150.053 150.053 0 0153.028-168.466" opacity="1" fill="none" stroke="#fd7059" stroke-width="50.818" stroke-miterlimit="4" stroke-dasharray="none" stroke-opacity="1"/><path d="M168.865 133.62a150.053 150.053 0 01176.607-1.627" id="path892" opacity="1" fill="none" fill-opacity="1" stroke="#7a62c9" stroke-width="50.818" stroke-miterlimit="4" stroke-dasharray="none" stroke-opacity="1"/><path id="path894" d="M345.472 131.993a150.053 150.053 0 0156.122 167.46" opacity="1" fill="none" stroke="#48a0dc" stroke-width="50.818" stroke-miterlimit="4" stroke-dasharray="none" stroke-opacity="1"/></g></g></g></svg>